<?xml version="1.0" encoding="utf-8"?>
<!-- Generator: Adobe Illustrator 19.0.0, SVG Export Plug-In . SVG Version: 6.00 Build 0)  -->
<svg version="1.1" id="Layer_1" xmlns="http://www.w3.org/2000/svg" xmlns:xlink="http://www.w3.org/1999/xlink" x="0px" y="0px"
	 viewBox="0 0 253 85.5" style="enable-background:new 0 0 253 85.5;" xml:space="preserve">
<style type="text/css">
	.st0{fill:#FEFEFE;}
	.st1{fill:#2E268A;}
	.st2{fill:#2F2B8C;}
	.st3{fill:#332A8D;}
	.st4{fill:#38308C;}
	.st5{fill:#3E3A90;}
	.st6{fill:#352B7C;}
	.st7{fill:#53539B;}
	.st8{fill:#383593;}
	.st9{fill:#30267F;}
	.st10{fill:#66639D;}
	.st11{fill:#6463A5;}
	.st12{fill:#4D4597;}
	.st13{fill:#6F6BA5;}
	.st14{fill:#241A81;}
	.st15{fill:#2E2781;}
	.st16{fill:#393690;}
	.st17{fill:#443C8D;}
	.st18{fill:#6B669E;}
	.st19{fill:#4A4699;}
	.st20{fill:#474297;}
	.st21{fill:#5C5897;}
	.st22{fill:#6A67A1;}
	.st23{fill:#4C4794;}
	.st24{fill:#AEAFAB;}
	.st25{fill:#66639F;}
	.st26{fill:#4F4484;}
	.st27{fill:#7C7CAC;}
	.st28{fill:#5350A0;}
	.st29{fill:#6460A6;}
	.st30{fill:#6A68A7;}
	.st31{fill:#4D499B;}
	.st32{fill:#362C85;}
	.st33{fill:#5B5189;}
	.st34{fill:#756E92;}
	.st35{fill:#3A338E;}
	.st36{fill:#423B93;}
	.st37{fill:#484492;}
	.st38{fill:#4A428D;}
	.st39{fill:#8284AD;}
	.st40{fill:#484590;}
	.st41{fill:#5D579F;}
	.st42{fill:#615CA3;}
	.st43{fill:#7372AC;}
	.st44{fill:#5D558F;}
	.st45{fill:#8F8CB8;}
	.st46{fill:#958EAE;}
	.st47{fill:#5E5A9C;}
	.st48{fill:#605BA9;}
	.st49{fill:#6C70AB;}
	.st50{fill:#8181B0;}
	.st51{fill:#7D81BE;}
	.st52{fill:#5450A6;}
	.st53{fill:#5C59A9;}
	.st54{fill:#5656A6;}
	.st55{fill:#999DB6;}
	.st56{fill:#6C66AC;}
	.st57{fill:#9497B7;}
	.st58{fill:#9AA3BB;}
	.st59{fill:#F8F8F9;}
	.st60{fill:#E3E1E6;}
	.st61{fill:#FCFCFC;}
	.st62{fill:#F9F8F8;}
	.st63{fill:#D3D0D9;}
	.st64{fill:#5F62A0;}
	.st65{fill:#3A3B92;}
	.st66{fill:#B3B6B9;}
	.st67{fill:#9FA1AD;}
	.st68{fill:#4F4E99;}
	.st69{fill:#8D8EB5;}
	.st70{fill:#999BB9;}
</style>
<g>
	<g>
		<path class="st0" d="M-40.5-28.5c110.7,0,221.3,0,332-0.1c3.4,0,4.1,0.7,4.1,4.1c-0.1,45.2-0.1,90.3,0,135.5c0,3-0.6,3.6-3.6,3.6
			c-109.7-0.1-219.3-0.1-329,0c-3,0-3.6-0.6-3.6-3.6C-40.5,64.5-40.5,18-40.5-28.5z"/>
		<path class="st1" d="M89.5,41.5c-0.8-5.1-0.5-10.3-1.1-15.3c-0.7-5.5,2.6-7.2,6.4-7.4c8.7-0.5,17.5-0.3,26.3-0.3
			c1,0,2.4,0.3,2,1.5c-1.1,2.9,1.4,5.9-0.4,8.6c-1.2,0.5-1.8-0.2-2.5-1c-0.3-0.4-0.6-1.3-0.7-1.2c-2.1,5.1-8.5,0.2-10.7,5.1
			c4.1-4.6,9.1-1.4,13.7-2c0.2,5.7-0.9,6.7-6.4,6.3c-2.8-0.2-5.6-0.1-8.4-0.3c-2.6-0.1-4.3,0.1-4.3,3.6c0,3.5,1.9,3.7,4.4,3.6
			c1.3,0,2.7-0.2,4,0c1.7,0.2,3.3,0.6,2.2,3.1c-0.4,1-0.3,2.3-0.2,3.4c0.5,4.4-1.2,6.6-5.8,6.2c-1.5-0.1-3-0.3-4,1.2
			c-1.4,0.5-4.1-0.2-2.6,3c0.5,1-0.3,2.2-0.9,3.2c-0.5,0.8-1,1.6-1.9,2.1c-2.1,0.6-3.5-1.1-5.3-1.6c-0.6-0.4-1.1-0.9-1.3-1.6
			c-1.2-7.1,1.4-14,1.5-21.1c-0.1,0.6-0.3,1.2-0.3,1.9c0.2,1.8,0.9,4.3-1.7,4.3c-2.8,0-0.4-2.7-1.2-4C90,42.3,89.8,41.8,89.5,41.5z"
			/>
		<path class="st2" d="M143.6,51.4c-0.1-4.4-0.2-8.9-0.1-13.3c0.1-2.2-0.6-3.1-2.8-2.7c-0.3,0.1-0.7,0-1,0
			c-10.2-0.1-12.2-2.5-10.1-12.7c0.6-2.9,1.7-5.2,5.5-4.3c1.7,0.4,3.6,0.2,5.4,0.2c2.4,5.3,2.4,5.3-1.7,9.4c2.1-2.4,5-3.8,5.9-7.5
			c0.5-2,3.9-1.7,5.8-0.7c2.8,1.4,5.8,1.9,8.7,1.3c2.9-0.6,4.5,1.5,7.4,2.8c-0.1-0.1-0.2-1.3-0.4-0.7c0,0.1-0.1,0-0.4-0.1
			c-0.8-0.2-1.6-0.5-1.6-1.6c0-1,0.6-1.4,1.5-1.6c3.7-0.9,6.3,1.1,5.9,4.8c-0.2,1.7,0.4,3.3,0,4.9c1.2,4.6-0.6,5.9-5.2,6
			c-3.2,0-8.2-2.3-9.1,3.8c-0.4,8.7-2.9,17.1-3,25.9c0,1-0.3,2-0.9,2.7c-1.3,1.2-2.7,2.4-4.7,1.9c-2.1-1.1-2.3-3.1-2.3-5.1
			c0-3.3-0.7-6.6-0.3-9.9C146.3,52.9,145,52.2,143.6,51.4z"/>
		<path class="st3" d="M177.6,67.5c0-15.4,0-30.9-0.2-46.3c0-2.5,0.9-3.2,3.2-3.1c2.6,0.1,5.3,0,7.9-0.1c2.3-0.1,2.8,1.2,2.8,3.1
			c-0.3,12.5-0.6,24.9-0.9,37.4c-0.7,1.1-1.5,0-2.2,0.1c0.3,1.3,1.7,1.8,2.2,3c0.7,4.3,2.8,5.4,7.4,5.1c12.1-0.6,10.4,1.9,8.6,10.8
			c-2.6,3-3.4-0.9-5-1.4c-3.1-3.7-6.1-6.1-11.4-2.9c-2.4,1.4-6,1.9-9.2,0.8c-1.2-1-0.9-2.4-0.6-3.5
			C180.7,68.2,178.9,68.1,177.6,67.5z"/>
		<path class="st4" d="M221.6,33.4c2.3,0.3,1.8,2.7,3,3.9c1.3,1.8,3.7,0.5,5.2,1.9c1.1,2.1,2.3,3.2,5.7,5.3c-2.6,3.9-3,8.4-3.2,12.9
			c-4.1,1.1-7.4-1.6-11.1-2.1c-0.5,4.3,3.2,3,5.2,3.3c1.8,0.2,3.5,0.4,5.2,0.9c1.8,6.8-0.3,13.4-0.5,20.2c-0.1,3-2.3,3.2-4.6,2.8
			c-1.5-1.7-4.9,1.2-5.5-1.9c-0.7-3.2,2.5-3.4,4.4-4.4c2.9-1.5,2-4.2,2.2-6.7c-1.9,1.1-3.5,0-5.2-0.3c-0.4,0.2-1.1-0.9-1.1-0.2
			c0.3,2.3,0.4,4.6,0.6,6.9c-0.8,2-1.6,3.9-4.4,2.6c0-7.5-1-15-0.2-22.5c0.5-4.6-2.1-8.2-4.2-11.9c-0.6-1.1-1.8-2-1.9-3.4
			c1.7-1.9,2.7-4.1,3.7-6.4c1-0.7,2-0.9,3.2-1.1C219.4,33.2,220.6,32.9,221.6,33.4z"/>
		<path class="st5" d="M29.3,45.7c-0.8-0.9-0.8-2.1,0.4-2.3c6.2-0.8,12.4-1.1,18.6-0.6c2.1,0.2,2.5,1.4,2.3,3c-1,7.3-0.1,14.7-2,22
			c-1.3,5-7.8,9.9-13.1,9.7c-1.9-1.2-4.1-1.2-6.1-1.9c-1.4-0.4-3.2-0.2-3.4-2.2c-0.2-1.7,0.1-3.5,1.4-4.5c1.4-1,2.4,0.4,3.3,1.2
			c1.2,1.1,2,0.4,3-0.3c1.5-1.1,2.5-0.7,3.7,0.8c0.6,0.7,0.1-0.8,0.5-1c2.1-1.5,3-3.4,1.9-5.9c-0.1-1.8-0.6-3.6,0.2-5.4
			c1.5-1.9,1.6-4.3,2-6.5c0.4-2.2-1.1-1.9-2.4-1c-0.4,0.1-0.9,0.2-1.3,0c-1.2-0.5-1.6-2.8-3.6-1.7C30.9,51.2,30.2,48.2,29.3,45.7z"
			/>
		<path class="st6" d="M75.5,14.5c4.1,0,6.7,0.4,4.7,6c-1.8,4.9-1,10.3-0.7,15.6c0.1,1.8,0.1,2.2-2.4,2.9c-5,1.3-9.7,0.2-14.6,0.3
			c-1.4-1.4,0.4-2.4,0.4-3.6c-0.1-3.5,0.6-7,0-10.4c-0.5-2.8-1.4-5.4-5.3-3.5c-1.9,0.4-1.6-1.2-2-2.2c-0.1-1.6-0.2-3.3-0.3-4.9
			c-0.1-2.3,1.4-0.9,2.3-1.1c1.5,0.3,3.1,1.5,4.5-0.4c0.6-1.3,1.5-2.3,3.1-2.1c1-0.1,1.8,0.4,2.5,1.1c1.4,2.6,3.6,1.9,5.8,1.6
			C74.4,13.7,75,14,75.5,14.5z"/>
		<path class="st7" d="M30.5,34.4c-9.4,6.2-11.9,15-7.3,26.1c-0.2,0.4-0.5,0.7-0.8,1c-1.6,1.3-3.1,1.7-4.6-0.3
			c-0.9-2.2-3.1-3.6-3.6-6c-0.3-1.3-1.6-1.9-2.1-3.1c2.7-2.4,3.1-4.6-0.7-6.3c-0.7-0.3-1.2-1.1-1.4-2c0.1-2.2-0.6-4.7,2.2-5.8
			c0.7,0.3,1.1,1.1,1.8,1.4c2-3.3,2.8-7.9,8.2-7.2c3.3-0.2,5.8-4.7,9.6-1.9C32.7,32.3,32.1,33.6,30.5,34.4z"/>
		<path class="st8" d="M22.4,33.5c-4.7-0.6-5.5,2.8-6.5,6.1c-0.3,1.1,0.1,3.5-2.4,1.9c-0.9-2.3,0-4.7-0.8-6.9
			c-0.4-1.3-2.1-0.2-2.6-1.4c-0.1-0.9-0.2-1.9,0.4-2.7c0.2-0.4,0.4-0.8,0.7-1.2c3.5-1.2,6.6-2.9,7.3-7c1.4-2.7,4-3.1,6.7-3.2
			c6.1-0.3,12.2-2.2,18.4-1.3c1.7,1.9,5.7,0.8,5.9,4.7c0,1.3,0,2.7,0,4c-1,1-2.2,1.1-3.4,0.8c-0.9-0.2-1.8-0.6-2.7-0.9
			c-2.3-0.6-1.9-3.4-3.6-4.5c-3.7,0-7.1,3.1-10.9,0.8c-0.7,3.8-6.3,4.4-6,8.8C22.8,32.2,22.8,32.9,22.4,33.5z"/>
		<path class="st9" d="M75.3,59.5c0.1,2.5,0.9,5-0.6,7.4c-1.6-1.2-1.7-3.2-2.9-4.6c-2.6-3.4,0.4-7.9-2.4-11.5
			c-1.5,0.5-1.2,2.7-2.7,3c-0.5,0.1-0.9,0-1.3-0.3c-0.4-0.5-0.7-1.1-0.6-2.5c-0.3,2.5,0.2,4.3,0.2,6c0,1.7,0,3.5,0.1,5.2
			c0.1,2.9,0.4,5.8-0.2,8.6c-0.7,2.6-0.5,5.4-2.2,7.7c-1.4-0.2-1.9-1.2-2-2.4c-1-9.8-1.1-19.7-1.1-29.6c0-1.1-0.1-2.7,1.5-2.6
			c4.5,0.5,9.1-1.6,13.5,0.7C75.9,49.6,74.2,54.6,75.3,59.5z"/>
		<path class="st10" d="M10.5,30.5c0,1-0.1,2-0.1,3c0.6,1.2,1.1,2.4,0.8,3.7c-0.7,2.1-1.8,4-1.6,6.3c0.5,3.2,1.8,6,2.9,8.9
			c1.4,0,2.5,0.6,3,1.9c-2.3,3.5-1.6,4.9,3.2,7c1.7,1.5,2.7-1,4.2-0.8c0.1,0.9,0.9,1.4,0.9,2.3c-0.6,1.7-2.1,2.7-3.1,4.2
			c-2.5,2.7-4.4,3.5-6.2-0.9c-0.9-2.1-2.7-5.5-6.1-1.8c-0.7,0.8-1.4-0.3-1.9-0.9C2.4,51.8,3.1,40.7,10.5,30.5z"/>
		<path class="st7" d="M20.3,66.8c-0.1-2.2,2-2.9,3.2-4.3c3,0.5,6.1,0.7,7.8,3.7c0.9,1.5,1.8,0.9,2.9,0.4c1.5-0.7,2.9-2.4,4.8-0.7
			c0.6,1.3,0.3,2.4-0.5,3.5c0.1,0.3,0.1,0.7,0.2,1c0.1,1.2,2.7,1.9,0.9,3.2c-1.5,1.1-2.2-0.8-2.8-1.8c-0.4-0.5-0.5-1.2-1-2.4
			c-2.8,4.4-5.3,3.9-7.4-0.4c-1.5,3.1-3.1,5.7,2.3,5.6c1.3,0,4,0.7,4.8,2.9c-4.7-0.1-9.5,0.2-13.9-2.1
			C20.7,72.6,17.5,70.1,20.3,66.8z"/>
		<path class="st11" d="M229.4,39.6c-1.9-0.1-4,0.3-4.8-2.3c1.1,0.2,2.2,0.2,3-0.8c1.6-1.3,3.6-1.3,5.6-1.9c-1.9-2.6-0.3-5.3-0.4-8
			c0.9-1.9,3-2.9,3.3-5.3c0.3-2.4,2.5-1.6,4-1.6c2.1-0.1,4.3,0.1,6.4,0.1c-0.3,1.9-2,2.1-3.3,2.3c-3.3,0.6-4.6,2.6-5,6.2
			c2.1-1.3,0.3-5.9,4.3-4.4c3.2,2.3,2.2,4.9,0,6.9c-1.7,1.6-1,2.4,0.1,3.5c-1.4,2.8-2.4,5.9-4.8,8.1C234.7,42.1,232,41,229.4,39.6z"
			/>
		<path class="st12" d="M171.6,29.7c-0.7-1.3-1.1-2.7-1-4.3c0.5-4.4-0.8-5.3-5.7-4.1c0.9,1.9,3.9-1.1,4.2,2.2
			c-2.1,0.6-4.3,2.1-6.1-0.8c-0.5-0.8-1.4-0.4-2.3-0.4c-3.9,0.1-7.8,1.2-11.3-2c-0.9-0.8-4.5-1.7-4,2.4c0.2,1.6-1,2.3-2.2,2.9
			c-0.9,0.5-1.9,1-2.3,1.7c-2,3.4-2,3.4-5.1-0.2c2.3-1,5.2-1.2,6.3-3.8c-1-1.6-3-0.2-4-1.5c-0.8-2.4,4.2-0.2,2.5-3.3
			c8,0,16.1,0,24.1,0.2c8,0.1,8.5,0.7,7.9,8.7C172.4,28.3,172.4,29.2,171.6,29.7z"/>
		<path class="st13" d="M152.5,67.5c0.9-9.5,2.1-18.9,4.8-28c0.9,10.1,0.3,20.3-0.4,30.3c-0.3,3.8,1.8,7.8-0.5,11.4
			c-1.9-1.1-3.9-1.8-5.3-3.5c-1-1.2-2-2.8-0.8-4C152.2,71.9,151.7,69.5,152.5,67.5z"/>
		<path class="st14" d="M180.4,73.4c4-0.9,8.4,0.2,12.1-3.4c1.5-1.5,4.9-0.2,6.9,1.8c1.1,1.1,2.1,2.4,3.2,3.7
			c-1.9,4.7-6.6,3.3-10.1,4.3c-2.4,0.7-5.2,0.3-7.9,0c-0.4-1.9-1.7-2.8-3.8-3.1c-1.4-0.2-3.6,0.3-3.4-2.3c-0.1-0.2-0.1-0.5,0-0.7
			c-0.4-0.7-0.6-1.8,0.2-2.1C179.1,71,179.7,72.4,180.4,73.4z"/>
		<path class="st15" d="M38.7,65.7c-1.4,0.7-2.9,1.4-4.3,2.2c-2.3,1.3-3.7,2.2-4.4-1.8c-0.5-2.6-4.3-2.3-6.5-3.6
			c-0.8-0.4-0.9-1.1-0.6-1.9c0,0,0.3-0.1,0.3-0.1c2.5,1.9,5.3,2.8,8.5,3c4.3,0.3,5.9-1.4,5.9-5.7c0-3-0.8-4.1-3.9-3.9
			c-1.9,0.1-5.8,1.3-4.2-3.4c3-1.1,6-1.4,9,0c0.3,0,0.6,0.1,1,0.1c4.2,2.1,2.4,5,1.2,7.9c-0.5,1.7,1,3.4-0.1,5.1
			C41.4,65.4,40.7,66.1,38.7,65.7z"/>
		<path class="st16" d="M201.5,22.5c-1.8-2.5-3.4-4.9,1.9-4.5c1.8,0.1,3.6-0.4,5.4-0.5c7-0.3,7-0.2,8.6,6.9
			c-4.6,3.6-7.9,3.4-13.3-0.7C203.2,23.1,202.3,22.9,201.5,22.5z"/>
		<path class="st17" d="M72.5,61.5c1.9,1.3,2.2,3.3,2.2,5.4c0,1.8-0.2,3.6-0.1,5.4c0.4,6.5-1.6,8-8,6.2c-2-2-1.6-4.3-0.9-6.7
			c0.6-1.9,2.1-1.8,3.6-1.6c1.3-1.6,1.5-3.1-0.4-4.4c-0.4-0.2-0.8-0.4-1-0.9c-0.3-1-0.2-1.9,0.4-2.7C69.6,61.2,70.9,60.9,72.5,61.5z
			"/>
		<path class="st18" d="M143.6,51.4c1.5,0.3,2-1.7,3.6-1.6c0.7,6.6-1,13.3,1.4,19.6c2.8,2.4,0.8,5.3,0.6,7.9c-0.1,1.9-1.8,1.4-3,0.5
			c-1.4-1.1-1.2-3.1-2.4-4.3c-0.5-4.3,0-8.6,0.6-12.8C144.8,57.6,144,54.5,143.6,51.4z"/>
		<path class="st19" d="M215.5,34.6c0.1,3,0.8,6.4-4.1,6c-2.7-5.1-6.9-9.4-8.3-15.3c4.7,0.3,6.6,1.9,7.6,6.8c0.6-0.9,0-1.8,0.4-2.7
			c0.5-1.3,1.2-2.5,2.8-2.3c1.5,0.2,2.2,1.3,2.5,2.7C216.7,31.5,216.5,33.1,215.5,34.6z"/>
		<path class="st20" d="M89.5,41.5c2.6,0.6,1.3,2.9,1.8,5.3c2.3-3.1,0.4-6.3,2.2-9.7c0.7,4.2,1.8,7.7,0.6,11c-1.2,3.2-2,6.1-0.3,9.4
			c0.8,1.5-0.8,2.7-1.3,4.1c-0.7,1.2-0.4,3.4-2.8,2.8C88.7,56.8,89.9,49.1,89.5,41.5z"/>
		<path class="st21" d="M98.4,64.4c0.1-0.8,0.3-1.6,1.1-1.9c1.9-0.6,3.1,0.4,3.9,2c0,2.7,0,5.3,0,8c-0.2,1.4-2.2,2.7-0.1,4.2
			c0,1-0.8,1-1.5,1.1c-1,0.4-2,0-2.9,0.3c-4.1,1.3-4.6-2.2-5.8-4.4c-1.4-2.4,0.8-3.5,2.4-4.6c0.4-0.3,0.7-0.7,1-1.1
			C97.2,66.8,97.4,65.4,98.4,64.4z"/>
		<path class="st22" d="M215.5,34.6c-0.1-0.3-0.2-0.6-0.3-0.9c-0.5-1.9,1.7-5.2-1.3-5.5c-3-0.2-1.8,3.5-3,6.3
			c-1.1-4.8-3.4-7.9-7.7-9.1c-0.6-0.9-1.1-1.9-1.7-2.8c2.9-2.9,6,1.2,6.3,1.6c3.3,3.6,6.5,0.7,9.6,0.4c1,2,2.1,4,3.1,6
			c-0.7,1-1.3,2-2,3C217.8,34.7,216.6,34.4,215.5,34.6z"/>
		<path class="st23" d="M143.7,73.5c2.7,0.1,1.5,4,4.6,4.1c0.3-2.7,0.9-5.4,0.4-8.3c1.7,0.2,2.6-1.4,3.9-1.9
			c0.6,2.3,3.3,4.9-1.3,6.4c-1.3,0.4-0.1,1.7,0.5,2.8c1.1,2.1,4.4,1.9,4.8,4.6c-1.5,0.1-2.9,0.2-4.4,0.2
			C144.4,81.3,144.4,81.3,143.7,73.5z"/>
		<path class="st24" d="M20.3,66.8c-2,3.2,3.1,5.4,1.3,8.6c-2.1-0.9-4.2-1.9-6.2-2.8c-2.2-1.4-2.2-5.4-5.9-5c-1.5-1-2.7-2.2-3-4.1
			c4.2,1.3,0.5-3.4,3.1-3.4c1.6,3.1,6.9,3.1,7.2,8C16.9,68.5,19.1,67.1,20.3,66.8z"/>
		<path class="st25" d="M217.6,78.5c2,0,3-1.4,3.8-2.9c1.4-2.2-0.8-4.8,1-7c6.4-0.1,7.5,1.1,6.2,6.4c-0.5,2.1-1.5,2.6-3.4,2.7
			c-1.5,0.1-3.4,0.6-3.4,2.2c-0.1,2.7,2.2,0.8,3.3,1.3c0.5,0.2,0.9,0.9,1.4,1.3c-1.8,0-3.6-0.3-5.4,0
			C217.7,82.9,217.1,81.3,217.6,78.5z"/>
		<path class="st26" d="M75.5,14.5c-0.8,0-1.5-0.1-2.3-0.1c-0.6-1.9,0.5-3.9-0.3-5.9c-2.2,1.1-3,3.9-5.6,4.1
			c-0.6-0.4-1.3-0.7-1.9-1.1c-0.3-0.2-0.4-0.5-0.3-0.7c0.1-0.2,0.2-0.4,0.3-0.4c1.4-1.8,2.8-3.6,4.1-5.4c2-2.9,5.3-4.3,7.8-2.4
			c2.6,2,1.9,5.8-0.4,8.2C75.8,12,75,12.8,75.5,14.5z"/>
		<path class="st27" d="M97.5,68.5c-0.7,1.1-1.3,2.4-2.8,2.5c-1.2,0.1-1.2,0.9-1.1,1.7c0.2,1.7,1.1,0.2,1.5,0.3
			c3.2,1.1-0.6,2.8,0.5,4.3c1.9,0.1,4,0.2,6.2,0.3c-4.3,0.6-8.9,2.6-12.2-2.2c2.1-3.3,2.2-6.6,0.2-10c0-0.4,0-0.8-0.1-1.2
			c0.9-0.9,1.9-1.9,2.8-2.8c0.3,0.3,0.6,0.7,0.9,1C94,65.1,98,65.3,97.5,68.5z"/>
		<path class="st28" d="M122.5,29.5c-1.9,1.3-3.6,3-6.1,0.7c-1.4-1.3-3.6-1.1-4.4,0.5c-1.5,3.2-3.6,1.9-6,1.4
			c1.1-3.4,4.7-4.7,6.7-4.2c4,1,5.3-1.2,7.1-3.8c1,1.7,0.6,4,2.8,4.5C122.8,29,122.8,29.3,122.5,29.5z"/>
		<path class="st29" d="M231.6,59.4c-2.4,1.1-5,1.2-7.3-0.1c-1.7-0.9-2.7-0.5-3.8,1.5c-0.7-3.1-0.6-5.4,0.2-7.8
			c3.5,2.8,7.8,3,11.6,4.3C232.1,58.1,231.8,58.8,231.6,59.4z"/>
		<path class="st30" d="M184.7,79.2c6.3,0.6,12.4-0.2,17.9-3.7c1.6,0.1,1.5,3.4,3.9,2c0.2,1.1,0.6,2.7-1.2,2.6
			c-8.3-0.4-16.6,1.5-24.8-0.5C181.8,78.2,183.2,78.4,184.7,79.2z"/>
		<path class="st31" d="M242.5,24.5c-0.8,0.4-3.3-0.9-1.8,1.9c0.5,1,1,2.8-1.1,3c-1.1,0.1-2.7,0.2-3.3-0.4c-1.3-1.3,0.6-2.2,0.9-3.3
			c1.3-4.9,6.1-4,9.2-5.8c1.4-0.1,2.9-1.3,3.9,0.7c-1.7,2.6-4.6,3-7.1,3.9C243,24.5,242.7,24.5,242.5,24.5z"/>
		<path class="st32" d="M30.5,34.4c0.4-1.3,0.8-2.5,1.2-3.8c0.5-0.7,1.2-1,2-1.2c2.8-0.2,5.5,0.1,8.1,1.1c1.8,0.7,4.3,1.1,3.6,4.1
			c-4,0.6-8,0.7-12-0.1C32.4,34.5,31.5,34.5,30.5,34.4z"/>
		<path class="st33" d="M64.4,36.4c-0.3,1.1-2,1.4-1.9,2.9c-1.3-0.2-2.4-1.1-3.8-0.5c-1.9,0.8-3.1-1-3-2c0.5-3.8-1.2-7.6,0.4-11.2
			c0.4-0.3,0.9-0.4,1.4-0.3c1.8,1.2,2.3,3.2,2.2,5.2C59.4,34,61.2,35.7,64.4,36.4z"/>
		<path class="st34" d="M65.4,10.4c0,0.4,0,0.7,0,1.1c-2.1,0.1-1.7,1.8-2,3.1c-2,0.3-1.8-1.5-2.3-2.6c-0.6-1.2-1-2.8-2.7-2.4
			c-2,0.5-0.7,2.1-0.5,3.3c0.1,0.5,0,1-0.2,1.4c-0.7,0.3-1.6-0.8-2.2,0.2c-1.5-2.8-4-6.3-0.6-8.6c3.3-2.2,6.4,0.5,8.5,3.5
			C64,10.2,64.6,10.5,65.4,10.4z"/>
		<path class="st35" d="M232.7,26.6c1.2,1,0.9,2.5,0.7,3.7c-0.3,2.1-1,4.1,3.6,3.1c-3.5,3.3-6.5,3.1-9.4,3
			C228.1,32.6,231.5,30.1,232.7,26.6z"/>
		<path class="st36" d="M242.4,34.5c-1.3-1.2-2.9,0.6-4.4-0.5c1.2-3.3,7.6-4.3,4.5-9.5c0,0,0,0,0,0c2-0.5,4.2-2.1,5.2,1.3
			C246,28.7,244.2,31.6,242.4,34.5z"/>
		<path class="st37" d="M33.4,34.5c4-0.5,8.1,0.7,12-0.8c1.7-2.4,0.2-4.8,0-7.2c1.3,0,2.6,0,3.9,0c0.8,8.9,0.8,9-7.8,8.6
			C38.8,35,36,36.4,33.4,34.5z"/>
		<path class="st38" d="M184.7,79.2c-1.4,0.1-2.8,0.2-4.2,0.3c-4,0-3.3-2.7-3.1-5.2c2.4,2.3,5.4,0.3,8.1,1.4
			C185.5,76.9,184,77.9,184.7,79.2z"/>
		<path class="st39" d="M229.4,39.6c0.5-0.8,1.4-1.3,2-0.5c2.2,2.8,3.2,0.6,4.2-1c2,1.1-1.7,4.4,2,4.5c-0.7,0.6-1.4,1.3-2.2,1.9
			C232.2,44.5,229.8,43.2,229.4,39.6z"/>
		<path class="st40" d="M103.3,64.4c-1.3-0.7-2.6-1.3-3.9-2c0.5-1,1.1-2,0.8-3.2c-0.2-1.3-2.3-2.5-0.4-3.8c1.5-1,2.4,1.4,3.9,1.1
			C103.6,59.2,103.5,61.8,103.3,64.4z"/>
		<path class="st41" d="M18.4,22.3c0.7,5.1,0,5.8-7.3,7C13.2,26.6,14.5,23.1,18.4,22.3z"/>
		<path class="st42" d="M180.4,73.4c-0.9,1.2-2.3-3-3.1,0.2c-1.5-2.1-1-4.2,0.2-6.2c1.3,0.5,2.1-2.4,3.2-0.9
			C182.3,68.8,181.8,71.2,180.4,73.4z"/>
		<path class="st43" d="M66.5,71.5c0,2.3,0,4.6,0,7c-1.3,0-2.6,0.1-3.9,0.1c-0.1-2.7,0-5.4,1-8C64.9,69.8,65.7,70.7,66.5,71.5z"/>
		<path class="st44" d="M89.7,65.6c3.1,1,3.3,3.7,2.5,5.8c-0.6,1.3,1.2,4.8-2.6,4.2C89.6,72.2,89.7,68.9,89.7,65.6z"/>
		<path class="st45" d="M38.4,50.5c-3,0-6,0-9,0c-0.1-1.6-0.1-3.2-0.2-4.8c1.8,4.4,4.7,3.1,7.7,1.1C37.5,48.1,38,49.3,38.4,50.5z"/>
		<path class="st7" d="M9.5,67.6c0.1-1,0.2-2.2,1.6-1.2c2,1.6,4.2,3.2,4.3,6.2C11.4,73.3,12.1,68.5,9.5,67.6z"/>
		<path class="st11" d="M247.7,25.8c-1.4-2-3.4-1-5.2-1.3c1.9-2.7,5.2-2.7,7.8-4C250.2,22.6,248.9,24.2,247.7,25.8z"/>
		<path class="st17" d="M75.3,59.5c-2.5-2.9-0.1-6.2-0.8-9.3c-0.4-1.7,0-3.6,0-5.4C76,49.6,75,54.6,75.3,59.5z"/>
		<path class="st37" d="M49.4,22.5c-1.1-2.6-4.8-2-5.9-4.7C45.4,19.4,50.6,16.9,49.4,22.5z"/>
		<path class="st19" d="M218.5,33.5c-1.6-2.5-0.5-3.2,2-3c1,0.7,1.1,1.8,1.1,2.9C220.6,34.1,219.6,34.2,218.5,33.5z"/>
		<path class="st46" d="M103.3,76.6c-1.2-0.5-3.4,0.7-3.6-1.4c-0.2-2.4,3.4-0.5,3.6-2.7C103.3,73.8,103.3,75.2,103.3,76.6z"/>
		<path class="st47" d="M190.4,61.5c-3.2-0.3-3.4-2.4-2.7-5.1c1.1,0.5,1.2,2.3,2.7,2C190.4,59.5,190.4,60.5,190.4,61.5z"/>
		<path class="st34" d="M57.4,25.5c-0.4,0-0.9,0-1.3,0c-0.7-2-0.6-4-0.3-6.1c0.6,0.7,1.1,1.3,1.7,2C58.7,22.8,58.7,24.2,57.4,25.5z"
			/>
		<path class="st48" d="M106.9,22.7c-3.3,4.4-8.5,5.4-12.8,1.8C99.3,26.4,102.6,22.5,106.9,22.7z"/>
		<path class="st49" d="M102.3,46.1c1.5,1.3,2.3,2.9,2.2,4.8c0,1.7-1,2.4-2.6,2c-2.1-0.5-1.9-2.3-1.6-3.8
			C100.5,47.9,100.5,46.4,102.3,46.1z"/>
		<path class="st40" d="M97.5,68.5c-0.6-2.5-5.1-2.4-4.1-6c2.2-0.9,3.1,1.8,5,1.8C98.4,65.8,98.9,67.4,97.5,68.5z"/>
		<path class="st50" d="M148.2,30.4c3.8-5,8.2-2.3,12.1-2.4C156.8,29.6,153,30.3,148.2,30.4z"/>
		<path class="st51" d="M166.2,27.6c0.5,0.6,1.5,1.4,1.5,2.2c0,1.4-1.5,1.4-2.5,1.5c-0.9,0.1-1.7-0.3-1.2-1.4
			C164.4,29,164.5,27.9,166.2,27.6z"/>
		<path class="st52" d="M179,56.2c2.4,2.9,4.1,4.9,6.3,7.5C178.4,61.8,178.4,61.8,179,56.2z"/>
		<path class="st53" d="M189,24.1c-2.8,2.3-4.9,3.9-6.9,5.6C182.4,25.9,184.3,24.2,189,24.1z"/>
		<path class="st54" d="M184.9,50.9c-1.2-0.4-2.3-0.7-2-1.7c0.4-1.7,0.6-3.8,2.9-4.2c0.7-0.1,1.4,0.6,1.2,1.2
			C186.4,47.9,185.6,49.4,184.9,50.9z"/>
		<path class="st55" d="M222.4,68.6c-0.9,2.2,3.7,5.3-1,7c-1.6-2.3-1.4-5.1-0.9-7.5C221.2,65.5,221.6,68.9,222.4,68.6z"/>
		<path class="st11" d="M223.2,50.6c-1.8-3-0.8-6-2.6-8.1C223.5,44.1,225.7,46,223.2,50.6z"/>
		<path class="st56" d="M218.6,45.2c1,0.4,1.9,0.8,1.8,2c-0.1,0.9-0.7,1.8-1.4,1.5c-0.7-0.4-1.1-1.5-1.4-2.4
			C217.5,45.7,217.7,45,218.6,45.2z"/>
		<path class="st57" d="M40.6,58.4c0.3-2.7,1.4-5.6-1.2-7.9c0.1-1.1,0.3-2.6,1.8-2.3c1.1,0.3,2.1,1.4,3.1,2.1
			C42,52.6,44.2,56.8,40.6,58.4z"/>
		<path class="st58" d="M38.7,65.7c1.3-0.2,1.7-1,1.8-2.2c2.9,3.2,1.2,4.8-2,5.9C38.6,68.1,38.6,66.9,38.7,65.7z"/>
		<path class="st59" d="M57.4,25.5c0-1.4,0-2.7,0-4.1c0.5-1,0.2-2.7,2.3-2.2c2,0.5,3.6,1.2,4.1,3.5c1,4.5-0.3,9.1,0.6,13.6
			c-4.3,1.5-6.4,0.2-6.2-4.6C58.3,29.7,57.7,27.6,57.4,25.5z"/>
		<path class="st60" d="M70.5,19.7c0.3,0.1,0.7,0.4,0.9,0.3c6.4-1.8,6.4-1.8,6.2,5.3c-0.1,2.5-0.2,4.9-0.4,7.4
			c-0.1,1.7-1.1,2.7-2.9,2.7c-1.9,0-1.8-1.4-2-2.8c-0.1-0.9,1.1-3.3-1.7-2C68.2,27.1,68.3,23.5,70.5,19.7z"/>
		<path class="st61" d="M70.5,19.7c0.1,3.7,0.1,7.3,0.2,11c0,1,0.1,2,0,3c-0.2,1.4-1.3,1.9-2.6,1.8c-1.8,0-1.5-1.4-1.5-2.5
			c-0.1-3.6,0-7.3-0.1-10.9C66.3,18.8,67.9,18.4,70.5,19.7z"/>
		<path class="st62" d="M67.3,12.5c2.1-2.3,4.2-4.7,7.1-7.9c0.3,4.2,1.2,7.1-1.2,9.7C70.8,15.3,67.8,17.9,67.3,12.5z"/>
		<path class="st63" d="M57.7,14.3c-0.7-1-1.7-2-2.1-3.1c-0.5-1.3-0.1-2.5,1.4-3.2c1.5-0.7,2.7-0.6,3.9,0.7c1.5,1.7,1.3,4,2.5,5.8
			C61.5,16.9,59.6,15.8,57.7,14.3z"/>
		<path class="st64" d="M33.5,30.4c-0.6,0.1-1.3,0.1-1.9,0.2c-2.7-0.1-5.1,0.5-6.8,2.9c-0.7,1-1.6,1-2.4,0c-2.7-2.9-0.3-4.9,1.1-7.3
			c0.7-1.1,5.7-0.8,1.7-4c-0.4-0.3,1.4-1.1,1.8-0.9C31.6,23,36,21,40.4,20.6c1,1,0.6,1.8-0.4,2.3c-1.2,0.6-1.8,1.4-1.9,2.7
			c-0.4,1.3-1.5,1.7-2.7,1.6C32.4,27,33.6,29.1,33.5,30.4z"/>
		<path class="st65" d="M12.5,52.5c-3.7-2-3.5-5.6-3.7-9c0.6-0.5,1.1-0.5,1.7,0c0.6,1.6,2,2.4,3.3,2.6c3.3,0.4,1.9,2.8,2.1,4.4
			c0.3,3.3-2.1-0.9-2.6,0.8C13.2,51.7,12.8,52.1,12.5,52.5z"/>
		<path class="st66" d="M18.7,61.5c-1,3.8-2.3,0.5-3.3,0c-2.1-1.2-2.9-3.6-3.2-5.7c-0.2-1.5,1.9-1.3,3.2-1.3
			C14.8,57.6,19.4,58.3,18.7,61.5z"/>
		<path class="st8" d="M10.5,43.5c-0.6,0-1.1,0-1.7,0c-0.8-2.7,0.5-4.8,1.8-7c0.5-0.8,1-1.6,2.1-1.2c1,1.2,1.7,2.3-0.3,3.1
			C11.7,40.1,11.1,41.8,10.5,43.5z"/>
		<path class="st10" d="M12.4,38.4c0.8-0.9,0.7-1.9,0-2.9c-0.5-1.2-0.7-2.1,1.1-2c1.3,2.7,0.5,5.3,0,8
			C12.3,40.7,12.5,39.5,12.4,38.4z"/>
		<path class="st67" d="M33.5,30.4c-0.4-1.3-3.1-0.4-2.5-2.3c0.4-1.3,1.8-2.1,3.4-2.3c1-0.1,2.2,1.2,3.1-0.3
			c2.1-1.1,4.2,1.2,6.3,0.1c0.6,0.3,1.1,0.5,1.7,0.8c1.9,2.4,4.6,4.8,0,7.2C41.9,31,37.8,30.5,33.5,30.4z"/>
		<path class="st37" d="M43.8,25.7c-2.1,2.8-4.2,0.5-6.3-0.1c-1.1-2.3-2.1-4.5,2.1-3.5c0.1,0,0.5-1,0.7-1.5c1,0.1,2.2,0.3,1.6,1.7
			C41.3,24.2,42.4,25,43.8,25.7z"/>
		<path class="st65" d="M13.5,33.5c-0.9,0.4-1,1.2-1.1,2c-0.6,0.3-1.2,0.6-1.8,1c0.3-1-1.3-1.9-0.2-3c0.8-0.5,1.6-1.4,2.5-1.5
			C14.5,31.7,14.6,32.5,13.5,33.5z"/>
		<path class="st68" d="M72.5,61.5c-1.2,0.4-2.5,0.7-3.7,1.1c0.1-3.2-4.2-5.4-2.3-9.1c1.2-1.5,0.8-3.4,1.4-5.4
			c3.4,1.9,4.9,4.5,4,8.2C71.5,58.2,71.5,59.8,72.5,61.5z"/>
		<path class="st68" d="M66.5,71.5c-1-0.3-1.9-0.6-2.9-0.9c0-2.7,0-5.5,0-8.2c0.4-0.5,0.7-1.1,0.8-1.8c0.3-1.4,0.7-2.7,2.6-2.1
			c1.8,0.5,1.4,1.7,1.2,3.2c-0.2,1.2-2,2.7,0.2,3.9c0.3,0,0.7,0,1,0c1.6,2.2,0.9,4.6,0.2,6.9C68.5,72.5,68.2,69.4,66.5,71.5z"/>
		<path class="st69" d="M68.5,65.5c-0.7-0.2-0.9,2.2-1.9,0.4c-0.2-0.4,0-1,0.1-1.5c0.3-1.6,2.2-3.8,0.4-4.8
			c-2.1-1.2-1.2,3.1-3.5,2.8c0-1.9,0-3.8,0.1-5.8c1.1-0.8-0.8-3.3,1.9-3.1c0.3,0.1,0.6,0.1,0.9,0c1.1,1.1-0.8,3.3,1.9,4.2
			c1.7,0.6,1.1,3.2,0.4,4.9C68.6,63.5,68.5,64.5,68.5,65.5z"/>
		<path class="st68" d="M65.5,53.5c-0.6,1-1.2,2.1-1.9,3.1c-0.2-2.9-0.4-5.8-0.6-9.1C66.3,48.9,65.4,51.4,65.5,53.5z"/>
		<path class="st70" d="M69.7,72.4c-0.1-2.3-0.1-4.6-0.2-6.9C72.2,68.2,72.2,68.4,69.7,72.4z"/>
	</g>
</g>
</svg>
