<?xml version="1.0" encoding="utf-8"?>
<!-- Generator: Adobe Illustrator 19.0.0, SVG Export Plug-In . SVG Version: 6.00 Build 0)  -->
<svg version="1.1" id="Layer_1" xmlns="http://www.w3.org/2000/svg" xmlns:xlink="http://www.w3.org/1999/xlink" x="0px" y="0px"
	 viewBox="0 0 252 84" style="enable-background:new 0 0 252 84;" xml:space="preserve">
<style type="text/css">
	.st0{fill:#FEFEFE;}
	.st1{fill:#010101;}
	.st2{fill:#020202;}
	.st3{fill:#060606;}
	.st4{fill:#F8F8F8;}
	.st5{fill:#F5F5F5;}
	.st6{fill:#F4F4F4;}
	.st7{fill:#E2E2E2;}
	.st8{fill:#8B8B8B;}
</style>
<g>
	<g>
		<path class="st0" d="M126.1,114.5c-54.6,0-109.3-0.1-163.9,0.1c-3.8,0-4.3-1-4.3-4.4c0.1-45,0.1-90,0-134.9c0-3.1,0.7-3.8,3.8-3.8
			c109.6,0.1,219.2,0.1,328.8,0c3.2,0,3.5,0.8,3.5,3.7c-0.1,45.3-0.1,90.6,0,135.9c0,2.9-0.5,3.6-3.6,3.6
			C235.7,114.5,180.9,114.5,126.1,114.5z"/>
		<path d="M39.6,42.5c0.7,0.1,0.8,0.1,1,0.1c8.9,0.1,8.8,0.1,8,9.1c-0.3,3.1,0,6.3-0.3,9.4c-1.2,12.9-8.8,19-21.2,16.2
			C19.6,75.7,11.7,74,7.1,66.6C1,56.8,1,46.9,5.5,36.6c3.4-7.8,8-14.6,16.2-17.5c8-2.8,16.9-3.2,24.6-0.3c4.6,1.7,1,9.1,2.2,13.7
			c0.4,1.5-0.9,3.1-3.1,3c-4-0.2-8,0.1-12-0.2c-7.6-0.7-12.7,3.6-13.3,11.5c-0.1,1.6,0.1,3.3,0,5c-0.1,7.8,2.3,10.7,9.7,11.6
			c4.4,0.5,6-1,6.1-5.6c0.1-2.7-0.5-4-3.6-3.6c-3.6,0.5-4.6-0.3-5-5c-0.6-7.6,3.7-6.3,7.7-6.6C36.8,42.4,38.5,42.5,39.6,42.5z"/>
		<path d="M250.2,19.7c-5.7,9.3-10.7,18-16.4,26.2c-3.5,5-2.4,10.2-2.9,15.4c-0.5,5.4-0.5,10.9-0.7,16.4c-0.1,3.7-1.7,5.1-5.6,4.8
			c-8.8-0.7-8.6-0.5-8.6-9.7c0-6-1-12-0.1-18.1c0.5-3.2-1.4-6.1-3-8.8c-4.8-7.6-9.2-15.5-13.3-23.5c-1.6-3-2.6-5.3,2.5-4.7
			c0.6,0.1,1.3-0.1,2-0.1c3.2,0,6.6-0.8,9.4,0.2c3,1.1,1.9,5.2,3.3,7.7c1.9,3.6,3.9,7.1,6,10.6c1.1,1.8,2.1,1.7,3.2-0.2
			c2.8-5,5.7-9.9,8.5-14.9c0.6-1,1.1-1.3,2.3-1.3C240.9,19.8,245.1,19.7,250.2,19.7z"/>
		<path d="M148.9,18.9c5.8,0,11.6,0,17.4,0c1,0,2.2-0.2,3,0.2c3.6,2.1,2.2,6,1.4,8.4c-0.8,2.6,2.7,7.2-2.9,7.9c-0.2,0-0.3,0-0.5,0
			c-11,1-11,1-11.2,11.9c-0.2,10.3-0.6,20.5-0.5,30.8c0,2.8-0.5,3.4-3.1,3.4c-12-0.2-10.7,0.7-10.3-10c0.4-10.7-0.9-21.4-0.5-32.1
			c0.1-3-0.5-4-3.7-4c-10.1,0.1-10.1,0-10.2-10.2c0-7.3,0-7.3,7.1-7c2.3,0.1,4.7,0.1,7,0.1c2.3,0,4.7,0,7,0
			C148.9,18.6,148.9,18.7,148.9,18.9z"/>
		<path d="M105.4,18.2c3.7,0,6,0,8.4,0c8.5-0.1,8.5-0.1,8.1,8.5c-0.1,2-0.4,3.9-0.4,5.9c-0.2,3.5-3.3,3.5-5.8,3.6
			c-3.3,0-6.6-0.2-10-0.4c-2.8-0.2-3.7,1-3.7,3.8c0,3,1.6,3.2,3.8,3.2c1,0,2-0.1,3-0.1c2.8-0.1,5.1,0.2,3.7,4.1
			c-0.3,0.9-0.2,2-0.1,3c0.5,4.2-1.2,6.5-5.5,5.8c-3.8-0.6-4.6,1.2-4.6,4.4c-0.1,5-0.6,10-0.4,15c0.1,2.9-1.2,3.4-3.4,3.5
			c-1.5,0-3-0.1-4.5,0c-4.7,0.3-6.2-1.9-6.2-6.5c0-15.5-0.1-31.1-0.9-46.6c-0.3-5.3,2.6-5.9,6-6.4C97.4,18,102.1,17.9,105.4,18.2z"
			/>
		<path d="M191.9,80.2c-2.7,0-5.3,0-8,0c-7.8,0-9.3-1-8.7-8.7c1.2-16.5,0.3-33.1,0.7-49.6c0.1-3.8,1.5-4.7,4.6-4.1
			c3,0.6,6.5-1.4,8.7,0.6c2.2,2,0,5.3,0.2,8c0.9,11-0.2,22.1-0.2,33.1c0,6,1.1,7.1,7,6.8c0.2,0,0.3,0,0.5,0
			c9.4-0.3,11.8,3.2,8.7,12.3c-0.5,1.6-1.3,1.5-2.5,1.4c-3.6-0.1-7.3,0-10.9,0C191.9,80.1,191.9,80.1,191.9,80.2z"/>
		<path class="st1" d="M58,59.7c0-5,0.1-8.8,0-12.6c-0.1-2.6,0.7-3.2,3.4-3.3c12.2-0.3,11.9-0.4,12.7,11.4c0.5,7-2,13.8-0.3,20.8
			c0.5,1.9-1.1,2.3-2.6,2.9c-3.5,1.4-6.9-0.6-10.3,0c-1.6,0.3-1.7-1.7-1.9-3C58.5,70.1,57.7,64.3,58,59.7z"/>
		<path class="st2" d="M60,7.5c2.9,3.5,5.2,2.7,7.1-1c0.2-0.4,0.5-0.8,0.7-1.3C69.5,2,72.3,1.1,75.6,2c2.1,0.6,2.4,6.4,0.2,8.9
			c-1.9,2.2-2.8,3.3,1.1,3.8c2.6,0.3,3.3,2.1,2.5,4.7c-1.3,4.4-1.9,9-1.4,13.7c0.2,2,0,3.9,0,5.9c-2.9-0.8-5.3,1.7-8,1.2
			c-4.4-0.7-8.7-1-13.1-1.1c-1.9-0.1-2.6-1.5-2.6-3.7c0.1-6.9-0.1-13.9-0.2-20.8c-0.7-1-0.5-1.8,0.5-2.4c1.7-0.7,2.8,1.3,4.5,0.9
			c0.8-1.7-0.9-3-0.5-4.6C58.7,7.7,59,7.1,60,7.5z"/>
		<path class="st3" d="M60,7.5c-0.3,0.3-0.6,0.5-0.9,0.8c-1.9,0.8-3.8,1.8-4.1,4.2c-0.8,0.5-0.9,1.2-1,2c-0.4-0.7-0.8-1.4-1.1-2.1
			c-1.1-2.2-2.3-4.9,0.2-6.6C55.3,4.4,58.1,5.2,60,7.5z"/>
		<path class="st4" d="M62.5,29.6c0,1.3-0.3,2.7,0.1,3.9c0.8,2.4-0.7,2.8-2.4,3.3c-2,0.6-3-0.6-3.1-2.1c-0.4-4.1-0.7-8.3-0.8-12.4
			c0-1.2,0.2-2.9,1.6-3c1.6-0.1,3.3,0.5,4,2.4C62.8,24.3,62.5,26.9,62.5,29.6z"/>
		<path class="st5" d="M70.9,21.4c0.6-1.5,0.9-3.3,3.3-2.8c2.6,0.5,1.6,2.5,1.6,4c0,2.8-0.2,5.6-0.3,8.4c-0.1,1.8,0.2,4.1-2.3,4.2
			c-2.9,0.2-1.9-2.4-2.2-4c-0.1-0.5-0.1-1-0.2-1.5C69.2,26.9,69.1,24.2,70.9,21.4z"/>
		<path class="st4" d="M69.2,30.6c-0.2,1.3-0.3,2.6-0.7,3.8c-0.3,0.9-1.2,1-2.1,1c-1.1-0.1-1.3-0.8-1.3-1.7
			c-0.1-4.1-0.2-8.2-0.2-12.3c0-3.1,2.1-2.2,3.8-1.7C70.6,23.3,70.3,27,69.2,30.6z"/>
		<path class="st6" d="M72.9,9.4c0.1,3.5-1.4,5.7-5,6.1c-1.5,0.2-2.4-0.7-1.9-2.1c1-3,2.9-5.6,5.9-6.6C73.4,6.3,72.6,8.5,72.9,9.4z"
			/>
		<path class="st7" d="M55,12.5c-1.7-4.3,0.2-5.2,4.1-4.2c0.1,0.2,0.1,0.3,0.2,0.5c1.1,2,3.1,4.6,1.1,6.2
			C58.3,16.7,56.8,13.3,55,12.5z"/>
		<path class="st8" d="M69.2,30.6c-0.1-3.6-0.2-7.3-0.3-10.9c0.7,0.6,1.4,1.1,2.1,1.7c0,2.8-0.1,5.5-0.1,8.3
			C70.3,30,69.7,30.3,69.2,30.6z"/>
	</g>
</g>
</svg>
